<svg id="Layer_1" data-name="Layer 1" xmlns="http://www.w3.org/2000/svg" viewBox="0 0 1080 1080"><defs><style>.cls-1{fill:#d60b51;}</style></defs><path class="cls-1" d="M614.43,651.61v61.08H501.31V411.79h49.77V348.44H438V524.92H313.54V411.79h61.08V348.44H309a58.91,58.91,0,0,0-58.82,58.83V529.43A58.9,58.9,0,0,0,309,588.26H438v129a58.88,58.88,0,0,0,58.81,58.83H619a58.88,58.88,0,0,0,58.82-58.83V651.61Z"/><path class="cls-1" d="M806.73,348.44h-129V219.49A58.88,58.88,0,0,0,619,160.67H496.79A58.88,58.88,0,0,0,438,219.49v65.6h63.33V224H614.43V524.92H564.66v63.34H677.77V411.79H802.21V524.92H741.13v63.34h65.6a58.9,58.9,0,0,0,58.83-58.83V407.27A58.91,58.91,0,0,0,806.73,348.44Z"/></svg>